Coordinates
version=1
nRows=32
nColumns=18
inDegrees=yes

Units are S.I. units (second, meters, Newtons, ...)
If the header above contains a line with 'inDegrees', this indicates whether rotational values are in degrees (yes) or radians (no).

endheader
time	ground_thorax_rot_x	ground_thorax_rot_y	ground_thorax_rot_z	ground_thorax_tx	ground_thorax_ty	ground_thorax_tz	clav_prot	clav_elev	scapula_abduction	scapula_elevation	scapula_upward_rot	scapula_winging	plane_elv	shoulder_elv	axial_rot	elbow_flexion	pro_sup
      5.31000000	      3.53677747	      0.05914170	     -9.30957863	     -0.00317402	      0.00355918	     -0.00155475	    -23.53949621	     -5.77448385	    -17.15035585	     -3.54380137	      6.85574384	      7.42521153	    -28.09320036	     22.53386481	     52.75262629	      0.00000000	     34.32000000
      5.32000000	      3.55740306	      0.04369822	     -9.33209771	     -0.00317212	      0.00360294	     -0.00158454	    -23.53916364	     -5.76526031	    -17.17549222	     -3.52345502	      6.80974543	      7.43335826	    -28.14404162	     22.52113939	     52.75194333	      0.00000000	     34.32000000
      5.33000000	      3.57056949	      0.02417781	     -9.35285187	     -0.00317439	      0.00364165	     -0.00161766	    -23.53843061	     -5.75309551	    -17.20380483	     -3.49892863	      6.75737162	      7.44212022	    -28.20159133	     22.49688716	     52.75145908	      0.00000000	     34.32000000
      5.34000000	      3.32000295	      0.49621151	     -9.17485083	     -0.00346784	      0.00387346	     -0.00203087	    -23.79363558	     -5.97421045	    -17.54843727	     -3.71113565	      6.83904346	      7.49801821	    -30.14068671	     22.26867309	     54.41387544	      0.00000000	     34.32000000
      5.35000000	      3.34986619	      0.48435844	     -9.18666394	     -0.00337260	      0.00392664	     -0.00206436	    -23.78879166	     -5.97061552	    -17.55904973	     -3.69794151	      6.80366288	      7.50532079	    -30.15369607	     22.24814317	     54.41713255	      0.00000000	     34.32000000
      5.36000000	      3.37122076	      0.49109747	     -9.19344426	     -0.00327426	      0.00397784	     -0.00210563	    -23.77993371	     -5.96708992	    -17.56447891	     -3.68353084	      6.76478572	      7.51346357	    -30.17054469	     22.20859339	     54.41978629	      0.00000000	     34.32000000
      5.37000000	      3.28690526	      0.57007063	     -9.18218069	     -0.00332343	      0.00381484	     -0.00221793	    -23.77137695	     -5.89789818	    -17.60796293	     -3.60540071	      6.68251688	      7.51025204	    -30.33900008	     22.02627648	     54.45474753	      0.00000000	     34.32000000
      5.38000000	      3.32855657	      0.52617632	     -9.20828576	     -0.00329418	      0.00382206	     -0.00214902	    -23.77733938	     -5.88736355	    -17.64217897	     -3.58546337	      6.64026516	      7.51702508	    -30.38979165	     22.00778574	     54.45527682	      0.00000000	     34.32000000
      5.39000000	      3.36450825	      0.46453948	     -9.25128664	     -0.00329131	      0.00368691	     -0.00198549	    -23.78866526	     -5.86650387	    -17.68576251	     -3.55905477	      6.60246352	      7.51935623	    -30.44621357	     22.01797874	     54.45451186	      0.00000000	     34.32000000
      5.40000000	      3.40804362	      0.40297837	     -9.29219358	     -0.00324824	      0.00346289	     -0.00174121	    -23.80523487	     -5.84816627	    -17.73027962	     -3.53915080	      6.57936429	      7.51900531	    -30.50671889	     22.05926969	     54.45408529	      0.00000000	     34.32000000
      5.41000000	      3.53428503	      0.85697938	     -9.01581674	     -0.00353894	      0.00385657	     -0.00192684	    -24.06699087	     -5.88623706	    -18.04712000	     -3.65468232	      6.82152465	      7.47344457	    -32.04869046	     22.34383107	     54.42144555	      0.00000000	     34.32000000
      5.42000000	      3.53949241	      0.82827921	     -9.05320786	     -0.00344510	      0.00384877	     -0.00186564	    -24.07279252	     -5.87241180	    -18.06931204	     -3.63924439	      6.80396586	      7.47305978	    -32.07385837	     22.34565246	     54.42327155	      0.00000000	     34.32000000
      5.43000000	      3.53191721	      0.78981098	     -9.09166152	     -0.00333966	      0.00394891	     -0.00190918	    -24.07983788	     -5.84788966	    -18.10247162	     -3.61203410	      6.77405989	      7.47190851	    -32.11533899	     22.31672756	     54.42203751	      0.00000000	     34.32000000
      5.44000000	      3.41795344	      0.97446792	     -9.05644401	     -0.00349124	      0.00399164	     -0.00211616	    -24.28275218	     -5.77045713	    -18.27993396	     -3.66937190	      7.14259837	      7.35586435	    -33.49006087	     21.79048508	     55.56910285	      0.00000000	     34.32000000
      5.45000000	      3.45094627	      0.93017997	     -9.07620360	     -0.00347789	      0.00407188	     -0.00216606	    -24.28236625	     -5.76443533	    -18.30590780	     -3.65076079	      7.09368206	      7.36572972	    -33.51122426	     21.75988368	     55.57203853	      0.00000000	     34.32000000
      5.46000000	      3.47205716	      0.90071247	     -9.07780090	     -0.00347110	      0.00405932	     -0.00219466	    -24.28154439	     -5.76666568	    -18.32348347	     -3.64158933	      7.05556648	      7.37573612	    -33.52671105	     21.72125362	     55.57642613	      0.00000000	     34.32000000
      5.47000000	      3.36693189	      0.87114432	     -9.06049922	     -0.00343335	      0.00395005	     -0.00223865	    -24.28193075	     -5.75717991	    -18.35936911	     -3.61591633	      6.99130843	      7.38818126	    -33.57956930	     21.55492545	     55.62179918	      0.00000000	     34.32000000
      5.48000000	      3.28326425	      0.89404538	     -9.07075079	     -0.00340032	      0.00396119	     -0.00237015	    -24.28521927	     -5.73101476	    -18.39115795	     -3.58460818	      6.95242854	      7.38888873	    -33.67516999	     21.39070155	     55.67626380	      0.00000000	     34.32000000
      5.49000000	      3.28709298	      0.86869922	     -9.09869493	     -0.00320746	      0.00410080	     -0.00243086	    -24.29021239	     -5.71076519	    -18.41918699	     -3.56103627	      6.92396631	      7.38899644	    -33.71192657	     21.36306608	     55.68146674	      0.00000000	     34.32000000
      5.50000000	      3.31428856	      1.37263582	     -8.95052856	     -0.00347778	      0.00417147	     -0.00245323	    -24.76093092	     -5.44500780	    -18.96293760	     -3.56374377	      7.55709519	      7.13900593	    -36.00631949	     20.52069867	     60.61711848	      0.00000000	     34.32000000
      5.51000000	      3.30903192	      1.34396671	     -8.98165390	     -0.00337821	      0.00421187	     -0.00243938	    -24.76623368	     -5.42353814	    -18.98385537	     -3.54375035	      7.54436692	      7.13495990	    -36.02618349	     20.52166481	     60.61352683	      0.00000000	     34.32000000
      5.52000000	      3.30296558	      1.30203612	     -9.00497177	     -0.00335628	      0.00424370	     -0.00237106	    -24.77567749	     -5.39574455	    -19.01477900	     -3.51836562	      7.52907928	      7.12943737	    -36.05861331	     20.50541160	     60.60449655	      0.00000000	     34.32000000
      5.53000000	      3.29880511	      1.23740722	     -9.02127522	     -0.00338666	      0.00425555	     -0.00229377	    -24.78996373	     -5.36280624	    -19.05714174	     -3.48824834	      7.51013313	      7.12299613	    -36.10386644	     20.47891385	     60.59065986	      0.00000000	     34.32000000
      5.54000000	      3.31535212	      1.18615669	     -8.93931713	     -0.00351160	      0.00410992	     -0.00220169	    -24.86887289	     -5.13322294	    -19.10572576	     -3.39259912	      7.78586558	      6.97890422	    -36.69908452	     20.22959013	     60.38913260	      0.00000000	     34.32000000
      5.55000000	      3.32679183	      1.12381312	     -8.98592931	     -0.00350062	      0.00408745	     -0.00211483	    -24.88079447	     -5.10631241	    -19.14317140	     -3.36682173	      7.76607341	      6.97485480	    -36.73797932	     20.25879247	     60.38393735	      0.00000000	     34.32000000
      5.56000000	      3.33048194	      1.06022336	     -9.01980108	     -0.00345674	      0.00407455	     -0.00199640	    -24.89696868	     -5.07731848	    -19.18271589	     -3.34279661	      7.75723042	      6.96732521	    -36.78216878	     20.28663829	     60.37578744	      0.00000000	     34.32000000
      5.57000000	      3.36065602	      0.93133394	     -8.93384690	     -0.00345822	      0.00417571	     -0.00178124	    -24.96464158	     -5.04069403	    -19.25958711	     -3.34470105	      7.84920913	      6.93071572	    -36.97145111	     20.32057409	     60.31733660	      0.00000000	     34.32000000
      5.58000000	      3.46199042	      0.96513490	     -8.84300763	     -0.00367473	      0.00420969	     -0.00181689	    -24.99286192	     -4.93194195	    -19.15908398	     -3.35681792	      8.18538032	      6.81182521	    -37.99708890	     20.32144735	     59.97913463	      0.00000000	     34.32000000
      5.59000000	      3.49242654	      0.90637224	     -8.86576998	     -0.00376541	      0.00409984	     -0.00167870	    -24.99959258	     -4.92968402	    -19.18657228	     -3.34733635	      8.15626657	      6.81810305	    -38.01979382	     20.33214861	     59.97600409	      0.00000000	     34.32000000
      5.60000000	      3.53154320	      0.85591594	     -8.86545580	     -0.00381713	      0.00404830	     -0.00152899	    -25.00641896	     -4.94179615	    -19.20520633	     -3.35175094	      8.13704913	      6.82649493	    -38.03994646	     20.33934134	     59.97235071	      0.00000000	     34.32000000
      5.61000000	      3.57474277	      0.81765453	     -8.85203979	     -0.00384298	      0.00401107	     -0.00140890	    -25.01230811	     -4.96606576	    -19.21369467	     -3.36848057	      8.12816307	      6.83607780	    -38.05995030	     20.34960443	     59.96859255	      0.00000000	     34.32000000
      5.62000000	      3.61763735	      0.73508395	     -8.82253772	     -0.00380381	      0.00411740	     -0.00135400	    -25.02613195	     -5.06042663	    -19.19468107	     -3.45282032	      8.16388491	      6.85685987	    -38.13371902	     20.44602664	     59.95818565	      0.00000000	     34.32000000
